<svg width="40" height="40" viewBox="0 0 40 40" fill="none" xmlns="http://www.w3.org/2000/svg">
<path d="M11.1615 40C11.6092 40 12.0206 39.8786 12.3957 39.6359C12.7707 39.3931 13.2305 39.029 13.775 38.5434L20.0362 32.954H31.6879C33.4907 32.954 35.0092 32.6293 36.2433 31.9799C37.4774 31.3306 38.412 30.3869 39.0472 29.1489C39.6824 27.9108 40 26.3996 40 24.6153V10.6691C40 8.88483 39.6824 7.37368 39.0472 6.13564C38.412 4.89758 37.4774 3.95387 36.2433 3.3045C35.0092 2.65513 33.4907 2.33044 31.6879 2.33044H8.31218C6.50939 2.33044 4.99093 2.65513 3.7568 3.3045C2.52269 3.95387 1.58802 4.89758 0.952814 6.13564C0.317605 7.37368 0 8.88483 0 10.6691V24.6153C0 26.3996 0.317605 27.9108 0.952814 29.1489C1.58802 30.3869 2.52269 31.3306 3.7568 31.9799C4.99093 32.6293 6.50939 32.954 8.31218 32.954H9.18333V37.6876C9.18333 38.3916 9.35574 38.953 9.70057 39.3719C10.0454 39.7906 10.5324 40 11.1615 40ZM11.9056 36.6682V31.3882C11.9056 30.8905 11.8028 30.5385 11.5971 30.3322C11.3914 30.1259 11.0406 30.0227 10.5445 30.0227H8.31218C6.47309 30.0227 5.11495 29.5645 4.23775 28.6481C3.36057 27.7317 2.92197 26.3814 2.92197 24.5972V10.6691C2.92197 8.89698 3.36057 7.55272 4.23775 6.63631C5.11495 5.71992 6.47309 5.26172 8.31218 5.26172H31.6879C33.5149 5.26172 34.87 5.71992 35.7533 6.63631C36.6365 7.55272 37.0782 8.89698 37.0782 10.6691V24.5972C37.0782 26.3814 36.6365 27.7317 35.7533 28.6481C34.87 29.5645 33.5149 30.0227 31.6879 30.0227H19.9275C19.4193 30.0227 19.0079 30.0773 18.6933 30.1866C18.3787 30.2958 18.0521 30.5264 17.7133 30.8784L11.9056 36.6682ZM10.6534 12.6172H29.1108C29.4133 12.6172 29.6643 12.514 29.8639 12.3077C30.0636 12.1013 30.1635 11.8525 30.1635 11.5612C30.1635 11.2699 30.0636 11.0241 29.8639 10.8238C29.6643 10.6236 29.4133 10.5234 29.1108 10.5234H10.6534C10.3509 10.5234 10.0998 10.6236 9.9002 10.8238C9.70057 11.0241 9.60075 11.2699 9.60075 11.5612C9.60075 11.8525 9.70057 12.1013 9.9002 12.3077C10.0998 12.514 10.3509 12.6172 10.6534 12.6172ZM10.6534 18.5343H29.1108C29.4133 18.5343 29.6643 18.4342 29.8639 18.2339C30.0636 18.0337 30.1635 17.7818 30.1635 17.4784C30.1635 17.1992 30.0636 16.9534 29.8639 16.741C29.6643 16.5286 29.4133 16.4224 29.1108 16.4224H10.6534C10.3509 16.4224 10.0998 16.5286 9.9002 16.741C9.70057 16.9534 9.60075 17.1992 9.60075 17.4784C9.60075 17.7818 9.70057 18.0337 9.9002 18.2339C10.0998 18.4342 10.3509 18.5343 10.6534 18.5343ZM10.6534 24.4697H22.6498C22.9402 24.4697 23.1882 24.3696 23.3939 24.1694C23.5996 23.969 23.7024 23.7232 23.7024 23.432C23.7024 23.1285 23.5996 22.8736 23.3939 22.6672C23.1882 22.4609 22.9402 22.3578 22.6498 22.3578H10.6534C10.3509 22.3578 10.0998 22.4609 9.9002 22.6672C9.70057 22.8736 9.60075 23.1285 9.60075 23.432C9.60075 23.7232 9.70057 23.969 9.9002 24.1694C10.0998 24.3696 10.3509 24.4697 10.6534 24.4697Z" fill="black" fillOpacity="0.85"/>
</svg>
